<svg xmlns="http://www.w3.org/2000/svg" width="1024" height="1024" viewBox="0 0 1024 1024">
  <defs>
    <linearGradient id="g" x1="0" x2="1" y1="0" y2="1">
      <stop offset="0" stop-color="#2563EB" />
      <stop offset="1" stop-color="#7C3AED" />
    </linearGradient>
  </defs>

  <rect rx="200" width="1024" height="1024" fill="url(#g)" />

  <g transform="translate(140, 130) scale(1.45)" >
    <ellipse cx="256" cy="200" rx="160" ry="190" fill="#FFF" />

    <rect x="210" y="340" width="100" height="200" rx="48" fill="#FFF" />

    <g fill="none" stroke="#FFF" stroke-width="18" stroke-linecap="round" stroke-linejoin="round" opacity="0.8" transform="translate(310, 80)">
      <path d="M120 40 C160 70 160 160 120 200" stroke-width="10" />
      <path d="M160 10 C220 70 220 170 160 230" stroke-width="10" />
      <path d="M200 -20 C280 70 280 190 200 260" stroke-width="10" />
    </g>

    <g transform="translate(200, 120)" stroke="#2563EB" stroke-width="8" opacity="0.95" >
      <path d="M0 0 L0 44" />
      <path d="M22 0 L22 44" />
      <path d="M44 0 L44 44" />
      <path d="M66 0 L66 44" />
      <path d="M88 0 L88 44" />
    </g>
  </g>
</svg>